<?xml version="1.0" encoding="UTF-8"?>
<!-- Generator: visioncortex VTracer 0.6.12 -->
<svg version="1.1" xmlns="http://www.w3.org/2000/svg" width="640" height="115">
<path d="M0 0 C0.3300000000000409 0 0.6599999999999682 0 1 0 C1.0373828125000273 1.1949609375 1.0747656250000546 2.389921875 1.11328125 3.62109375 C1.496832963013503 13.591342377351742 2.625179213715569 21.462076026135353 6.569580078125 30.66015625 C8.26665296668557 35.23187893772411 8.473623553076322 39.47281893834273 8.51171875 44.3125 C8.529669952392624 45.166826171875 8.547621154785134 46.02115234375 8.566116333007813 46.9013671875 C8.619826182526253 49.60086286447798 8.653987393194825 52.300185820111125 8.6875 55 C8.720707904861342 56.84247175557353 8.755200728834552 58.68492082671552 8.791015625 60.52734375 C8.875529432783082 65.01810368947427 8.942526561136106 69.50881591552358 9 74 C13.907301732527117 76.37450083831956 17.022758829364193 76.33586209215157 23 77 C23 89.54 23 102.08 23 115 C-188.20000000000005 115 -399.40000000000003 115 -617 115 C-617 108.73 -617 102.46 -617 96 C-613.37 96 -609.74 96 -606 96 C-606 95.01 -606 94.02 -606 93 C-604.02 93 -602.04 93 -600 93 C-600.020625 91.88625 -600.04125 90.7725 -600.0625 89.625 C-600 86 -600 86 -599 84 C-598.34 84 -597.68 84 -597 84 C-597.33 79.05 -597.66 74.1 -598 69 C-597.01 69 -596.02 69 -595 69 C-594.67 67.35 -594.34 65.7 -594 64 C-593.505 63.835 -593.505 63.835 -591 63 C-591.1599243164062 62.29947509765625 -591.3198486328125 61.5989501953125 -591.484619140625 60.877197265625 C-592.0243625843361 57.86399192022662 -592.1755431398341 55.02417475446603 -592.24609375 51.96484375 C-592.27896484375 50.82595703125 -592.3118359375 49.6870703125 -592.345703125 48.513671875 C-592.4069987593367 46.12575046073304 -592.4642778291839 43.73772262900815 -592.517578125 41.349609375 C-592.534658203125 40.780810546875 -592.534658203125 40.780810546875 -592.62109375 37.90234375 C-592.6461499023437 36.86585693359375 -592.6712060546874 35.8293701171875 -592.697021484375 34.761474609375 C-592.9999822421566 32.00016185251072 -593.6681255078214 30.396321480741268 -595 28 C-595.1953125 25.64062500000001 -595.1953125 25.64062500000001 -595.125 23.25 C-595.106953125 22.45078125 -595.08890625 21.6515625 -595.0703125 20.828125 C-595.047109375 20.22484375 -595.02390625 19.6215625 -595 19 C-594.01 18.67 -593.02 18.34 -592 18 C-592 21.63 -592 25.26 -592 29 C-589.69 29 -587.38 29 -585 29 C-584.7525 30.2375 -584.505 31.475 -584.25 32.75 C-583.3103479896583 36.58972907823064 -581.9538433873461 38.33201242433261 -579 41 C-578.125 42.9375 -578.125 42.9375 -578 45 C-578.157265625 45.353203125 -578.157265625 45.353203125 -578.953125 47.140625 C-580.250329159572 50.6837348686815 -580.4536839124604 54.08280601085788 -580.625 57.8125 C-580.663671875 58.50537109375 -580.70234375 59.1982421875 -580.7421875 59.912109375 C-580.8357356804421 61.60767014551362 -580.9189236359015 63.30379711951861 -581 65 C-580.01 65 -579.02 65 -578 65 C-575.636678196104 70.82390015960095 -574.7058731373914 75.64238294341308 -575.08984375 81.93359375 C-575 84 -575 84 -573 86 C-572.875 89.62500000000001 -572.875 89.62500000000001 -573 93 C-561.2968246758035 93.90396940435174 -549.7385203039574 94.0863126492938 -538 94 C-537.67 88.39 -537.34 82.78 -537 77 C-534.36 77.33 -531.72 77.66 -529 78 C-529 78.66 -529 79.32 -529 80 C-527.6800000000001 80 -526.36 80 -525 80 C-524.67 81.32 -524.67 81.32 -523 88 C-522.46375 87.90718749999999 -522.46375 87.90718749999999 -519.75 87.4375 C-516 87 -516 87 -512 88 C-512 83.38 -512 78.76 -512 74 C-509.03 74 -506.06 74 -503 74 C-502.67 76.31 -502.67 76.31 -501 88 C-500.34000000000003 88 -499.68 88 -499 88 C-499.0116015625 87.156953125 -499.023203125 86.31390625 -499.03515625 85.4453125 C-499.0441796875 84.349609375 -499.053203125 83.25390625 -499.0625 82.125 C-499.0741015625 81.034453125 -499.085703125 79.94390625 -499.09765625 78.8203125 C-499 76 -499 76 -498 74 C-493.38 74 -488.76 74 -484 74 C-483.01 76.31 -482.02 78.62 -481 81 C-481 79.68 -481 78.36 -481 77 C-478.37440156321725 77.30801439520344 -475.74960194212844 77.62120181723067 -473.125 77.9375 C-472.3786328125 78.02451171875 -471.632265625 78.1115234375 -470.86328125 78.201171875 C-465.2265625 78.88671874999999 -465.2265625 78.88671874999999 -463 80 C-462.9626171875 79.25234375 -462.925234375 78.5046875 -462.88671875 77.734375 C-462.8209765625 76.74953125 -462.755234375 75.7646875 -462.6875 74.75 C-462.6294921875 73.77546875 -462.571484375 72.8009375 -462.51171875 71.796875 C-461.9435247530831 68.69132613135491 -461.19945441588845 67.24095355581088 -459 65 C-455.8125 64.25 -455.8125 64.25 -453 64 C-452.690625 62.72125 -452.38125 61.4425 -452.0625 60.125 C-451.5239475599293 57.89898324770783 -451.02630000404633 56.052600008092725 -450 54 C-447.03 54 -444.06 54 -441 54 C-436.4831680344689 62.73254180002669 -434.6831065817072 69.10588327330251 -435 79 C-434.01 79 -433.02 79 -432 79 C-432 77.02 -432 75.04 -432 73 C-431.01 73 -430.02 73 -429 73 C-429 75.31 -429 77.62 -429 80 C-428.34000000000003 80 -427.68 80 -427 80 C-427 60.86 -427 41.72 -427 22 C-425.02 22 -423.03999999999996 22 -421 22 C-421 16.06 -421 10.12 -421 4 C-420.34000000000003 4 -419.68 4 -419 4 C-419 9.940000000000001 -419 15.88 -419 22 C-417.02 22.66 -415.03999999999996 23.32 -413 24 C-413 38.85 -413 53.7 -413 69 C-411.35 69.33 -409.7 69.66 -408 70 C-408 73.3 -408 76.6 -408 80 C-407.01 80 -406.02 80 -405 80 C-405 61.849999999999994 -405 43.699999999999996 -405 25 C-396 25 -396 25 -393 27 C-392.6392364501953 29.21463012695311 -392.6392364501953 29.21463012695311 -392.659423828125 32.00048828125 C-392.6596504211426 33.04141632080078 -392.65987701416014 34.08234436035156 -392.6601104736328 35.154815673828125 C-392.675594329834 36.281929626464844 -392.69107818603516 37.409043579101564 -392.70703125 38.5703125 C-392.71127609252926 39.721676940917966 -392.71552093505863 40.87304138183594 -392.7198944091797 42.059295654296875 C-392.73672947868977 45.74809854511166 -392.77439125773185 49.436361361591366 -392.8125 53.125 C-392.82754055893855 55.62108587803823 -392.8412300513114 58.11718029177852 -392.853515625 60.61328125 C-392.8866487991951 66.74237275322851 -392.93689610833997 72.87114780426029 -393 79 C-392.34000000000003 79 -391.68 79 -391 79 C-391 73.72 -391 68.44 -391 63 C-389.576875 62.979375 -388.15375 62.95875 -386.6875 62.9375 C-385.8869921875 62.9258984375 -385.086484375 62.914296875 -384.26171875 62.90234375 C-382 63 -382 63 -379 64 C-377.44091346274126 64.36890303213204 -375.8780695881304 64.72215878518904 -374.3125 65.0625 C-373.5042578125 65.2391015625 -372.696015625 65.415703125 -371.86328125 65.59765625 C-371.2483984375 65.7304296875 -370.633515625 65.863203125 -370 66 C-369.66999999999996 64.68 -369.34000000000003 63.36 -369 62 C-363.25 61.87499999999999 -363.25 61.87499999999999 -361 63 C-360.72294626269945 66.04304924576039 -360.6845638434251 69.06246230439761 -360.63671875 72.1171875 C-360 74.99999999999997 -360 74.99999999999997 -357.51953125 76.8828125 C-355 78 -355 78 -354 78 C-353.67 74.04 -353.34 70.08 -353 66 C-352.01 66 -351.02 66 -350 66 C-350 64.02 -350 62.04 -350 60 C-349.67 60 -349.34 60 -349 60 C-348.67 62.31 -348.34 64.62 -348 67 C-346.02 67 -344.04 67 -342 67 C-341.34 70.3 -340.68 73.6 -340 77 C-339.34 77 -338.68 77 -338 77 C-337.67 76.34 -337.34 75.68 -337 75 C-334.69 75 -332.38 75 -330 75 C-330.0309375 74.360625 -330.0309375 74.360625 -330.1875 71.125 C-330.29296875 68.94531250000018 -330.29296875 68.94531250000018 -330 67 C-329.505 66.67 -329.505 66.67 -327 65 C-323.34888335364457 71.54158399138677 -323.7011240597457 77.6387962863301 -324 85 C-323.34 85 -322.68 85 -322 85 C-322.0103125 84.44312500000001 -322.0103125 84.44312500000001 -322.0625 81.625 C-322 78.00000000000003 -322 78.00000000000003 -321 76 C-317.04 76 -313.08 76 -309 76 C-309 76.99 -309 77.98 -309 79 C-307.68 79 -306.36 79 -305 79 C-304.855625 77.865625 -304.71125 76.73125 -304.5625 75.5625 C-304 72.00000000000001 -304 72.00000000000001 -303 71 C-301.1471249845204 70.92773498379565 -299.29166122432025 70.91618780201931 -297.4375 70.9375 C-296.93154296875 70.94201171875 -296.93154296875 70.94201171875 -294.37109375 70.96484375 C-293.5886328125 70.9764453125 -292.806171875 70.988046875 -292 71 C-292 73.64 -292 76.28 -292 79 C-291.291015625 78.6764453125 -290.58203125 78.352890625 -289.8515625 78.01953125 C-286.8447151259798 76.94448033956265 -284.5558441355484 76.70064398403119 -281.375 76.6875 C-280.433984375 76.6707421875 -279.49296875 76.653984375 -278.5234375 76.63671875 C-276 77 -276 77 -273 80 C-272.67 77.03 -272.34 74.06 -272 71 C-266.80166632457656 68.47509507193719 -264.0291197708666 69.34915026217486 -258.6875 71.0625 C-257.800625 71.371875 -256.91375 71.68125 -256 72 C-256 68.04 -256 64.08 -256 60 C-252.37 60 -248.74 60 -245 60 C-244.67000000000002 63.96 -244.33999999999997 67.92 -244 72 C-243.01 72.33 -242.01999999999998 72.66 -241 73 C-240.67000000000002 68.71 -240.33999999999997 64.42 -240 60 C-238.68 59.67 -237.36 59.34 -236 59 C-235.690625 57.865625 -235.38125000000002 56.73125 -235.0625 55.5625 C-234 51.999999999999964 -234 51.999999999999964 -233 51 C-231.0004163630731 50.95919217067496 -228.99954746011412 50.95745643701885 -227 51 C-225.79727180966375 53.405456380672454 -225.89928527895785 54.94996952704814 -225.9375 57.625 C-225.9465234375 58.442265625 -225.95554687499998 59.25953125 -225.96484375 60.1015625 C-225.97064453125 60.414804687499995 -225.97064453125 60.414804687499995 -226 62 C-225.33999999999997 61.67 -224.68 61.34 -224 61 C-223.5859375 58.277343750000014 -223.5859375 58.277343750000014 -223.375 54.9375 C-223.300234375 53.8327734375 -223.22546875 52.728046875 -223.1484375 51.58984375 C-223.09945312500003 50.7351953125 -223.05046875 49.880546875 -223 49 C-219.37 49 -215.74 49 -212 49 C-212 52.96 -212 56.92 -212 61 C-210.01999999999998 60.67 -208.04000000000002 60.34 -206 60 C-206 53.73 -206 47.46 -206 41 C-199.73000000000002 41 -193.45999999999998 41 -187 41 C-187 46.61 -187 52.22 -187 58 C-184.69 58 -182.38 58 -180 58 C-179.67000000000002 58.33 -179.33999999999997 58.66 -179 59 C-178.505 57.35 -178.505 57.35 -176 49 C-175.01 49 -174.01999999999998 49 -173 49 C-173 50.65 -173 52.3 -173 54 C-169.7 54 -166.39999999999998 54 -163 54 C-163 58.95 -163 63.9 -163 69 C-161.68 69 -160.36 69 -159 69 C-159 66.69 -159 64.38 -159 62 C-156.02999999999997 61.67 -153.06 61.34 -150 61 C-149.67000000000002 59.02 -149.33999999999997 57.04 -149 55 C-148.01 55 -147.01999999999998 55 -146 55 C-146 54.01 -146 53.02 -146 52 C-141.38 52 -136.76 52 -132 52 C-130.40873110072033 56.87326100404399 -129.78807779430275 60.807905960417585 -130 66 C-129.01 66.33 -128.01999999999998 66.66 -127 67 C-126.86722656249998 66.3619140625 -126.73445312500002 65.723828125 -126.59765625 65.06640625 C-126.42105468749997 64.2401171875 -126.244453125 63.413828125 -126.0625 62.5625 C-125.97548828125002 62.150644531249995 -125.97548828125002 62.150644531249995 -125.53515625 60.06640625 C-125 58 -125 58 -124 57 C-122.33382884892825 56.95936167924215 -120.6661190515158 56.95727899867908 -119 57 C-118.67000000000002 58.65 -118.33999999999997 60.3 -118 62 C-116.01999999999998 62 -114.04000000000002 62 -112 62 C-111.67000000000002 62.66 -111.33999999999997 63.32 -111 64 C-108.67843402898421 64.4072922756168 -106.34312130090609 64.74438676717388 -104 65 C-104 63.35 -104 61.7 -104 60 C-95.61988971370931 59.8460796069865 -87.35104207227016 60.317287071464044 -79 61 C-79 64.63 -79 68.26 -79 72 C-78.34000000000003 72 -77.67999999999995 72 -77 72 C-76.93812500000001 71.5978125 -76.93812500000001 71.5978125 -76.625 69.5625 C-76.41875000000005 68.716875 -76.21249999999998 67.87125 -76 67 C-75.34000000000003 66.67 -74.67999999999995 66.34 -74 66 C-73.375 63.93749999999999 -73.375 63.93749999999999 -73 62 C-70.69000000000005 62 -68.38 62 -66 62 C-65.66999999999996 60.35 -65.34000000000003 58.7 -65 57 C-61.700000000000045 57 -58.39999999999998 57 -55 57 C-54.04108042727216 60.83567829091157 -53.89822811410238 63.82281141024146 -53.9375 67.75 C-53.94652343749999 68.92046875 -53.95554687499998 70.0909375 -53.96484375 71.296875 C-53.970644531249945 71.742890625 -53.970644531249945 71.742890625 -54 74 C-52.35000000000002 74 -50.700000000000045 74 -49 74 C-49 74.99 -49 75.98 -49 77 C-47.01999999999998 77 -45.039999999999964 77 -43 77 C-43.02320312500001 76.394140625 -43.04640625000002 75.78828125 -43.0703125 75.1640625 C-43.20628077556762 68.85124970578758 -42.46211965907969 63.135680712209364 -41 57 C-40.00999999999999 57 -39.01999999999998 57 -38 57 C-38 56.34 -38 55.68 -38 55 C-37.174999999999955 55.33 -37.174999999999955 55.33 -33 57 C-32.66999999999996 59.97 -32.34000000000003 62.94 -32 66 C-31.030624999999986 66.144375 -30.061249999999973 66.28875 -29.0625 66.4375 C-26 67 -26 67 -25 68 C-24.54234332578801 70.98889358837228 -24.296790487430485 73.98969648463371 -24 77 C-18.059999999999945 77 -12.120000000000005 77 -6 77 C-6.0052368164062955 76.32626342773438 -6.0052368164062955 76.32626342773438 -6.03173828125 72.916748046875 C-6.0679003393203175 67.92409922295285 -6.090886689440254 62.93146200826157 -6.10986328125 57.938720703125 C-6.1199295130167 55.7765915347803 -6.133583544154021 53.614476003915705 -6.15087890625 51.452392578125 C-6.1750997826129606 48.34713375264574 -6.186476810903855 45.24205469875396 -6.1953125 42.13671875 C-6.205635070800781 41.1678825378418 -6.2159576416015625 40.1990463256836 -6.226593017578125 39.20085144042969 C-6.22666854858403 38.750497817993164 -6.22666854858403 38.750497817993164 -6.22705078125 36.471435546875 C-6.231492004394568 35.67867721557617 -6.235933227539022 34.885918884277345 -6.240509033203125 34.06913757324219 C-6 32.000000000000036 -6 32.000000000000036 -4 29 C-3.40234375 26.80859374999984 -3.40234375 26.80859374999984 -2.9375 24.4375 C-2.4650922871520606 22.05984465186459 -2.085648357326818 20.171296714653593 -1 18 C-0.8499502727112258 16.62653650336658 -0.7516199424103434 15.247147403181998 -0.68359375 13.8671875 C-0.6626464843750455 13.46435546875 -0.6626464843750455 13.46435546875 -0.556640625 11.42578125 C-0.5369824218749955 11.00490234375 -0.5369824218749955 11.00490234375 -0.4375 8.875 C-0.3943164062500273 8.0255078125 -0.35113281250005457 7.176015625 -0.306640625 6.30078125 C-0.20045764030123792 4.200717774845657 -0.09971503488884537 2.1003805221278333 0 0 Z " fill="#000000" transform="translate(617,0)"/>
</svg>
